<svg xmlns="http://www.w3.org/2000/svg" viewBox="163.5 387.7 926.5 88.6" role="img" aria-label="Stay fresh. Anywhere."><path fill="currentColor" fill-rule="evenodd" d="M556.125 389.750 L 551.375 389.875 551.311 421.750 C 551.251 451.495,551.275 453.646,551.671 453.938 C 551.975 454.161,553.426 454.250,556.780 454.250 C 560.705 454.250,561.528 454.186,561.857 453.857 C 562.205 453.509,562.250 451.840,562.253 439.295 C 562.256 423.794,562.252 423.834,563.740 421.515 C 564.564 420.231,565.390 419.420,566.875 418.436 C 568.904 417.091,569.653 416.903,573.000 416.900 C 575.888 416.896,576.220 416.946,577.375 417.550 C 579.595 418.711,580.624 420.247,581.340 423.468 C 581.693 425.057,581.750 427.269,581.750 439.481 C 581.750 450.168,581.824 453.724,582.050 453.950 C 582.262 454.162,583.717 454.250,587.000 454.250 C 590.283 454.250,591.738 454.162,591.950 453.950 C 592.330 453.570,592.373 423.487,591.999 420.221 C 591.584 416.602,590.228 413.672,587.903 411.374 C 585.048 408.552,581.589 407.262,576.875 407.262 C 571.766 407.262,567.852 408.860,563.893 412.560 C 563.196 413.212,562.513 413.709,562.375 413.665 C 562.215 413.613,562.080 409.309,562.000 401.758 C 561.878 390.205,561.863 389.929,561.375 389.779 C 561.100 389.694,558.737 389.681,556.125 389.750 M404.000 389.904 C 401.611 390.348,398.704 392.046,396.704 394.164 C 395.616 395.317,394.276 397.742,393.686 399.622 C 393.264 400.972,393.107 402.238,393.006 405.125 L 392.875 408.875 389.625 408.942 C 386.931 408.998,386.322 409.081,386.063 409.427 C 385.682 409.937,385.622 417.131,385.991 418.101 C 386.230 418.731,386.256 418.736,389.554 418.805 L 392.875 418.875 392.939 436.305 C 393.003 453.559,393.009 453.737,393.513 454.007 C 394.054 454.296,403.324 454.261,403.615 453.969 C 403.701 453.882,403.769 446.072,403.766 436.613 C 403.762 424.448,403.841 419.317,404.036 419.082 C 404.247 418.828,405.405 418.750,408.981 418.750 C 412.279 418.750,413.738 418.662,413.950 418.450 C 414.372 418.028,414.372 409.722,413.950 409.300 C 413.737 409.087,412.248 409.000,408.842 409.000 C 404.480 409.000,404.021 408.959,403.902 408.563 C 403.669 407.790,403.929 402.647,404.234 402.000 C 404.396 401.656,405.000 401.038,405.577 400.625 C 406.544 399.933,406.788 399.875,408.750 399.875 C 410.488 399.875,411.084 399.982,412.025 400.463 C 413.889 401.416,414.104 401.249,415.508 397.750 C 415.812 396.994,416.271 395.913,416.530 395.348 C 417.317 393.627,417.189 393.205,415.523 392.036 C 414.710 391.466,413.973 391.000,413.884 391.000 C 413.795 391.000,413.194 390.756,412.549 390.458 C 411.559 390.002,410.845 389.907,408.000 389.852 C 406.144 389.817,404.344 389.840,404.000 389.904 M887.300 390.050 C 887.070 390.280,887.000 397.696,887.000 421.907 C 887.000 450.262,887.040 453.504,887.393 453.857 C 887.722 454.186,888.539 454.250,892.409 454.250 C 895.118 454.250,897.233 454.143,897.516 453.991 C 897.986 453.740,898.000 453.314,898.000 439.375 C 898.000 425.445,898.015 424.979,898.518 423.697 C 899.330 421.623,900.466 420.041,901.904 418.978 C 902.633 418.440,903.319 418.000,903.431 418.000 C 903.542 418.000,904.081 417.753,904.629 417.450 C 905.503 416.968,906.008 416.899,908.750 416.892 C 911.655 416.885,911.963 416.931,913.125 417.545 C 914.547 418.296,915.734 419.472,916.359 420.750 C 917.393 422.863,917.500 424.623,917.500 439.513 C 917.500 453.315,917.514 453.740,917.984 453.991 C 918.266 454.142,920.353 454.250,923.000 454.250 C 925.647 454.250,927.734 454.142,928.016 453.991 C 928.486 453.740,928.500 453.311,928.500 439.129 C 928.500 423.305,928.333 420.551,927.163 417.112 C 926.224 414.351,925.553 413.250,923.652 411.348 C 921.721 409.417,920.176 408.544,917.265 407.737 C 914.734 407.036,910.615 407.065,907.905 407.803 C 904.864 408.631,901.287 410.794,899.358 412.970 C 898.899 413.488,898.472 413.762,898.296 413.653 C 898.075 413.517,898.000 410.557,898.000 402.006 C 898.000 395.700,897.932 390.363,897.848 390.145 C 897.717 389.803,897.021 389.750,892.648 389.750 C 889.055 389.750,887.514 389.836,887.300 390.050 M184.625 392.585 C 179.391 393.672,174.352 396.720,171.467 400.543 C 169.825 402.718,169.198 404.141,168.620 407.000 C 167.937 410.378,168.532 414.550,170.182 417.952 C 171.348 420.358,174.678 423.857,176.625 424.725 C 177.313 425.031,178.213 425.433,178.625 425.619 C 179.037 425.805,179.994 426.233,180.750 426.572 C 182.072 427.163,183.776 427.637,188.625 428.761 C 193.332 429.853,195.902 430.922,198.166 432.728 C 200.091 434.265,200.848 435.709,200.863 437.875 C 200.873 439.357,200.767 439.809,200.171 440.823 C 198.953 442.895,196.127 444.531,192.897 445.034 C 189.585 445.550,184.585 444.842,181.945 443.482 C 179.799 442.377,175.920 438.900,173.935 436.302 C 173.378 435.574,172.783 435.011,172.612 435.052 C 172.100 435.172,165.500 442.772,165.500 443.241 C 165.500 443.757,168.184 446.959,169.832 448.410 C 170.867 449.321,173.856 451.175,176.197 452.357 C 182.358 455.470,193.076 455.910,199.971 453.334 C 206.039 451.068,209.703 447.311,211.512 441.500 C 212.002 439.926,212.098 439.063,212.110 436.125 C 212.123 433.008,212.058 432.447,211.517 431.000 C 210.777 429.024,208.975 426.205,207.961 425.438 C 207.552 425.128,206.727 424.447,206.129 423.924 C 203.667 421.774,195.726 418.577,191.100 417.874 C 190.109 417.724,187.486 416.939,185.331 416.148 C 181.848 414.870,179.998 412.500,180.002 409.321 C 180.007 406.114,181.647 403.920,184.922 402.739 C 186.434 402.194,187.017 402.126,190.125 402.138 C 193.341 402.150,193.765 402.207,195.352 402.838 C 198.222 403.981,201.140 406.228,203.454 409.078 C 203.768 409.465,204.171 409.747,204.351 409.703 C 204.977 409.553,211.250 402.820,211.250 402.298 C 211.250 401.672,206.592 396.870,205.000 395.855 C 201.231 393.452,196.824 392.274,191.000 392.113 C 187.930 392.029,186.954 392.101,184.625 392.585 M669.972 393.251 C 669.750 393.380,669.205 394.418,668.760 395.556 C 668.315 396.694,667.669 398.348,667.324 399.232 C 666.980 400.116,666.598 401.016,666.475 401.232 C 666.072 401.943,664.000 407.541,664.000 407.920 C 664.000 408.293,663.318 410.151,661.997 413.375 C 660.403 417.266,658.000 423.441,657.998 423.651 C 657.998 423.774,657.822 424.210,657.608 424.620 C 657.394 425.030,656.940 426.099,656.597 426.995 C 656.255 427.892,655.756 429.106,655.488 429.694 C 655.219 430.282,655.000 430.884,655.000 431.031 C 655.000 431.179,654.840 431.654,654.644 432.087 C 654.447 432.520,653.766 434.225,653.129 435.875 C 652.493 437.525,651.760 439.381,651.502 440.000 C 651.244 440.619,650.562 442.363,649.988 443.875 C 648.680 447.320,648.068 448.846,647.470 450.152 C 647.212 450.717,647.000 451.343,647.000 451.542 C 647.000 451.741,646.835 452.123,646.633 452.390 C 646.146 453.033,646.153 453.909,646.645 454.098 C 647.288 454.345,656.411 454.271,657.087 454.014 C 657.428 453.885,657.783 453.519,657.875 453.202 C 658.041 452.635,658.859 450.491,661.113 444.712 C 661.739 443.111,662.250 441.696,662.250 441.569 C 662.250 441.441,662.510 441.093,662.829 440.794 C 663.406 440.252,663.440 440.250,675.060 440.250 L 686.714 440.250 687.213 440.885 C 687.488 441.234,687.832 442.073,687.976 442.749 C 688.121 443.425,688.636 444.980,689.120 446.203 C 689.604 447.427,690.000 448.531,690.000 448.656 C 690.000 448.780,690.208 449.274,690.463 449.754 C 690.717 450.233,691.125 451.229,691.368 451.968 C 692.139 454.308,691.967 454.250,698.094 454.250 C 704.327 454.250,704.464 454.204,703.573 452.418 C 702.966 451.202,702.290 449.574,701.378 447.125 C 701.019 446.163,700.570 444.981,700.379 444.500 C 700.188 444.019,699.510 442.275,698.872 440.625 C 698.235 438.975,697.553 437.270,697.356 436.837 C 697.160 436.404,697.000 435.929,697.000 435.781 C 697.000 435.634,696.781 435.032,696.513 434.444 C 696.082 433.495,694.975 430.658,693.414 426.500 C 693.130 425.744,692.814 425.008,692.712 424.865 C 692.610 424.722,692.178 423.654,691.752 422.490 C 691.326 421.327,690.371 418.856,689.630 417.000 C 688.889 415.144,688.156 413.119,688.000 412.500 C 687.844 411.881,687.106 409.850,686.358 407.986 C 685.611 406.121,685.000 404.504,685.000 404.390 C 685.000 404.277,684.560 403.159,684.021 401.905 C 683.483 400.651,682.745 398.837,682.382 397.875 C 681.128 394.556,680.703 393.624,680.305 393.313 C 679.820 392.934,670.608 392.879,669.972 393.251 M228.362 396.854 C 227.971 397.140,227.933 397.692,227.979 402.461 L 228.031 407.751 227.453 407.965 C 227.135 408.083,225.188 408.157,223.125 408.130 C 221.020 408.102,219.238 408.185,219.063 408.320 C 218.627 408.656,218.616 417.516,219.050 417.950 C 219.259 418.159,220.587 418.250,223.416 418.250 C 227.206 418.250,227.500 418.283,227.746 418.743 C 227.924 419.075,228.005 424.814,227.995 436.392 C 227.984 449.080,228.056 453.641,228.271 453.900 C 228.500 454.176,229.506 454.250,233.047 454.250 C 235.661 454.250,237.735 454.142,238.016 453.991 C 238.487 453.739,238.500 453.279,238.500 436.291 C 238.500 423.059,238.572 418.778,238.800 418.550 C 239.010 418.340,240.398 418.250,243.441 418.250 C 245.956 418.250,247.986 418.141,248.266 417.991 C 248.717 417.750,248.750 417.429,248.746 413.304 C 248.744 410.868,248.636 408.707,248.507 408.503 C 248.312 408.195,247.475 408.129,243.698 408.127 C 241.183 408.125,238.984 408.033,238.813 407.922 C 238.579 407.771,238.500 406.403,238.500 402.503 C 238.500 398.308,238.430 397.216,238.142 396.928 C 237.651 396.437,229.021 396.372,228.362 396.854 M475.125 407.233 C 466.516 408.376,459.286 414.183,456.581 422.125 C 456.300 422.950,455.871 424.188,455.628 424.875 C 455.071 426.453,454.799 433.898,455.223 436.000 C 456.446 442.071,459.716 447.440,463.875 450.204 C 465.702 451.418,467.860 452.555,470.312 453.594 C 473.804 455.074,480.376 455.433,484.952 454.392 C 487.632 453.783,491.363 452.415,493.000 451.442 C 496.011 449.652,497.250 448.712,497.250 448.218 C 497.250 447.724,495.998 445.653,493.754 442.438 C 492.728 440.967,492.091 440.663,491.507 441.366 C 491.063 441.901,488.555 443.535,487.224 444.156 C 483.409 445.936,477.419 445.903,473.293 444.078 C 471.552 443.308,468.981 441.092,467.857 439.392 C 466.240 436.946,465.379 433.766,466.329 433.743 C 466.492 433.739,473.845 433.742,482.669 433.750 L 498.712 433.764 499.106 433.201 C 499.581 432.522,499.645 428.846,499.233 425.831 C 498.378 419.568,495.087 413.953,490.435 410.817 C 488.723 409.664,485.770 408.324,483.683 407.753 C 481.516 407.160,477.510 406.917,475.125 407.233 M957.625 407.233 C 952.129 407.963,946.608 410.836,943.343 414.665 C 940.308 418.225,938.733 421.633,937.725 426.821 C 936.479 433.236,937.815 439.912,941.421 445.291 C 943.779 448.810,947.927 451.834,952.767 453.564 C 959.534 455.984,967.564 455.373,974.456 451.914 C 977.623 450.325,979.750 448.795,979.750 448.106 C 979.750 447.941,979.377 447.259,978.921 446.591 C 978.464 445.922,978.024 445.193,977.941 444.971 C 977.634 444.142,975.175 441.000,974.834 441.000 C 974.638 441.000,973.893 441.439,973.177 441.976 C 969.984 444.368,966.715 445.500,962.997 445.500 C 960.621 445.500,957.256 444.888,956.037 444.235 C 955.539 443.968,955.014 443.750,954.869 443.750 C 954.372 443.750,951.056 440.511,950.140 439.132 C 949.263 437.810,948.269 435.341,948.256 434.452 C 948.253 434.220,948.362 433.960,948.499 433.876 C 948.636 433.791,956.001 433.731,964.867 433.743 L 980.987 433.763 981.525 433.225 C 982.036 432.714,982.056 432.523,981.931 429.406 C 981.739 424.636,980.808 420.971,978.960 417.710 C 978.432 416.778,978.000 415.906,978.000 415.773 C 978.000 415.375,974.468 411.898,973.174 411.021 C 971.244 409.714,968.279 408.341,966.125 407.758 C 963.902 407.156,960.017 406.916,957.625 407.233 M1043.875 407.159 C 1042.325 407.329,1039.021 408.192,1037.500 408.825 C 1034.067 410.252,1031.646 411.982,1029.032 414.872 C 1026.830 417.307,1026.431 418.076,1024.626 423.376 C 1023.810 425.771,1023.460 428.120,1023.436 431.375 C 1023.407 435.234,1023.851 437.610,1025.287 441.272 C 1026.297 443.849,1026.814 444.787,1028.138 446.441 C 1029.920 448.669,1030.722 449.360,1033.500 451.061 C 1038.078 453.864,1042.063 454.989,1047.440 454.996 C 1052.610 455.003,1057.291 453.706,1062.125 450.928 C 1065.105 449.216,1065.750 448.721,1065.745 448.153 C 1065.742 447.863,1065.128 446.781,1064.380 445.750 C 1063.632 444.719,1062.553 443.228,1061.982 442.438 C 1060.871 440.900,1060.457 440.729,1059.641 441.468 C 1056.760 444.079,1052.926 445.500,1048.760 445.500 C 1046.475 445.500,1043.260 444.890,1042.009 444.220 C 1041.527 443.961,1041.042 443.750,1040.931 443.750 C 1040.522 443.750,1039.082 442.598,1037.569 441.060 C 1035.426 438.882,1033.340 434.437,1034.210 433.900 C 1034.356 433.810,1041.792 433.741,1050.734 433.746 L 1066.993 433.757 1067.530 433.220 C 1068.043 432.707,1068.060 432.531,1067.924 429.030 C 1067.656 422.127,1065.829 417.573,1061.631 413.339 C 1059.951 411.646,1056.246 409.000,1055.554 409.000 C 1055.377 409.000,1054.983 408.842,1054.679 408.649 C 1053.080 407.636,1047.080 406.809,1043.875 407.159 M269.125 407.837 C 263.181 409.471,258.223 413.735,255.515 419.543 C 254.323 422.100,254.136 422.816,253.641 426.710 C 253.138 430.678,253.148 431.684,253.736 436.081 C 254.274 440.110,255.012 442.273,256.798 445.055 C 258.639 447.921,259.607 449.031,261.586 450.546 C 265.844 453.804,269.151 455.003,273.860 454.996 C 276.892 454.992,278.798 454.539,282.090 453.038 C 283.839 452.241,287.048 450.057,287.781 449.166 C 288.027 448.865,288.346 448.733,288.593 448.828 C 288.931 448.958,289.000 449.404,289.000 451.465 C 289.000 453.497,289.072 453.974,289.395 454.098 C 290.082 454.362,299.001 454.267,299.516 453.991 C 299.989 453.738,300.000 453.220,300.000 431.125 C 300.000 409.841,299.974 408.505,299.563 408.307 C 299.044 408.059,289.692 408.102,289.282 408.355 C 289.103 408.466,289.000 409.436,289.000 411.000 C 289.000 412.359,288.896 413.535,288.769 413.613 C 288.642 413.692,287.709 412.939,286.695 411.940 C 284.594 409.872,282.294 408.594,279.185 407.766 C 276.449 407.038,271.914 407.070,269.125 407.837 M443.500 407.847 C 441.496 408.534,440.484 409.061,438.875 410.255 C 437.665 411.152,435.537 413.339,434.732 414.512 C 433.997 415.582,433.750 414.902,433.746 411.798 C 433.744 410.190,433.638 408.710,433.511 408.509 C 433.322 408.211,432.410 408.138,428.577 408.114 C 425.991 408.098,423.678 408.182,423.438 408.301 C 423.026 408.505,423.000 409.843,423.000 431.125 C 423.000 453.220,423.011 453.738,423.484 453.991 C 424.240 454.396,433.369 454.334,433.711 453.922 C 433.898 453.697,434.005 449.367,434.054 440.109 C 434.122 427.141,434.144 426.587,434.631 425.625 C 436.118 422.688,437.895 420.889,440.500 419.682 C 441.952 419.009,442.392 418.927,444.625 418.912 C 446.531 418.898,447.315 418.996,447.925 419.322 C 449.589 420.212,449.676 420.123,450.576 416.625 C 450.788 415.800,451.151 414.394,451.383 413.500 C 451.845 411.715,452.500 408.741,452.500 408.425 C 452.500 408.315,452.022 408.009,451.438 407.743 C 449.867 407.030,445.725 407.084,443.500 407.847 M518.625 407.843 C 517.525 408.139,516.379 408.520,516.079 408.690 C 515.779 408.861,515.378 409.000,515.188 409.000 C 514.652 409.000,511.522 411.186,510.427 412.326 C 509.322 413.476,508.361 414.890,507.676 416.375 C 506.725 418.438,506.677 423.669,507.594 425.375 C 507.815 425.788,507.998 426.207,507.998 426.308 C 507.999 426.408,508.383 427.083,508.850 427.808 C 510.228 429.943,512.020 431.403,515.221 433.001 C 516.323 433.550,517.370 434.001,517.549 434.002 C 517.729 434.002,518.212 434.184,518.625 434.405 C 519.337 434.786,520.148 435.030,523.625 435.909 C 528.480 437.136,530.592 438.307,531.395 440.218 C 531.852 441.303,531.843 442.043,531.362 443.196 C 530.821 444.490,529.840 445.461,528.375 446.154 C 526.081 447.239,521.054 446.782,517.940 445.205 C 516.599 444.527,514.026 442.728,513.399 442.030 C 513.137 441.738,512.733 441.500,512.500 441.500 C 512.032 441.500,506.134 446.541,505.905 447.136 C 505.578 447.988,509.350 451.075,512.541 452.567 C 516.088 454.226,519.800 455.001,524.161 454.995 C 529.579 454.987,533.206 453.818,537.125 450.815 C 539.355 449.107,540.347 447.805,541.317 445.311 C 541.788 444.098,541.875 443.389,541.875 440.750 C 541.875 436.438,541.374 435.110,538.759 432.483 C 537.723 431.443,536.256 430.250,535.500 429.832 C 533.662 428.816,530.109 427.455,527.500 426.767 C 526.331 426.459,524.756 426.002,524.000 425.751 C 523.244 425.501,521.985 425.116,521.202 424.895 C 517.983 423.989,516.638 420.208,518.613 417.619 C 519.777 416.092,520.466 415.874,524.125 415.879 L 527.375 415.884 529.649 417.031 C 532.075 418.255,533.068 418.892,534.563 420.188 C 535.079 420.634,535.594 421.000,535.707 421.000 C 536.058 421.000,541.370 414.995,541.452 414.506 C 541.548 413.928,538.830 411.689,536.445 410.383 C 534.241 409.175,532.654 408.583,529.665 407.852 C 526.361 407.043,521.617 407.040,518.625 407.843 M733.250 407.625 C 732.769 407.810,732.149 407.971,731.873 407.981 C 731.123 408.009,727.038 410.161,725.750 411.206 C 725.131 411.708,724.274 412.486,723.845 412.934 C 722.472 414.372,722.250 414.125,722.250 411.156 C 722.250 409.372,722.152 408.488,721.938 408.327 C 721.764 408.197,719.534 408.115,716.908 408.142 C 713.229 408.180,712.144 408.266,711.974 408.533 C 711.855 408.721,711.756 418.908,711.754 431.170 C 711.750 451.107,711.792 453.506,712.143 453.857 C 712.471 454.185,713.278 454.250,717.034 454.250 C 719.657 454.250,721.734 454.142,722.016 453.991 C 722.486 453.740,722.500 453.316,722.503 439.679 C 722.506 424.813,722.536 424.372,723.700 422.095 C 724.201 421.115,727.320 418.000,727.800 418.000 C 727.925 418.000,728.556 417.753,729.201 417.451 C 730.201 416.984,730.821 416.901,733.375 416.894 C 736.154 416.887,736.470 416.936,737.659 417.558 C 739.509 418.526,740.640 419.971,741.380 422.314 L 742.000 424.276 742.000 439.004 C 742.000 453.310,742.014 453.740,742.484 453.991 C 743.223 454.387,752.042 454.332,752.594 453.929 C 753.007 453.627,753.027 452.648,752.928 437.491 L 752.822 421.375 752.203 418.991 C 751.302 415.522,750.199 413.453,748.126 411.345 C 746.169 409.356,744.784 408.558,741.935 407.780 C 739.624 407.149,734.714 407.061,733.250 407.625 M1011.750 407.859 C 1009.619 408.606,1008.663 409.115,1007.000 410.385 C 1005.568 411.479,1003.534 413.537,1003.077 414.354 C 1002.911 414.651,1002.661 414.769,1002.406 414.671 C 1002.063 414.540,1002.000 414.053,1002.000 411.517 C 1002.000 408.911,1001.943 408.489,1001.563 408.298 C 1000.973 408.001,992.055 408.095,991.749 408.401 C 991.598 408.552,991.503 417.029,991.496 431.131 C 991.485 452.132,991.513 453.641,991.915 453.935 C 992.436 454.316,1001.160 454.378,1001.750 454.005 C 1002.073 453.801,1002.142 451.896,1002.250 440.197 L 1002.375 426.625 1003.108 425.125 C 1004.123 423.046,1006.425 420.805,1008.625 419.751 C 1010.263 418.967,1010.543 418.913,1013.000 418.908 C 1015.058 418.903,1015.834 419.003,1016.592 419.369 C 1017.865 419.983,1018.288 419.702,1018.689 417.976 C 1018.862 417.233,1019.167 416.006,1019.368 415.250 C 1020.436 411.219,1020.975 408.727,1020.850 408.400 C 1020.381 407.177,1014.664 406.838,1011.750 407.859 M675.417 408.270 C 675.577 408.603,676.229 410.506,676.866 412.500 C 678.199 416.672,679.864 421.401,680.537 422.924 C 680.791 423.501,681.000 424.102,681.000 424.260 C 681.000 424.418,681.167 424.846,681.372 425.211 C 681.576 425.576,681.902 426.325,682.095 426.875 C 682.289 427.425,682.590 428.224,682.764 428.651 C 683.433 430.284,683.598 430.250,675.056 430.250 C 669.279 430.250,667.240 430.172,666.925 429.938 C 666.539 429.651,666.599 429.396,667.645 426.875 C 668.273 425.363,668.900 423.788,669.039 423.375 C 669.178 422.962,669.396 422.400,669.524 422.125 C 670.168 420.739,674.000 409.406,674.000 408.886 C 674.000 408.248,674.497 407.457,674.829 407.567 C 674.992 407.621,675.256 407.937,675.417 408.270 M305.866 408.320 C 305.480 408.536,305.553 408.808,306.623 411.137 C 308.130 414.414,308.561 415.369,310.457 419.625 C 311.560 422.100,312.685 424.576,312.958 425.128 C 313.231 425.680,314.150 427.705,315.000 429.628 C 315.851 431.551,316.829 433.744,317.173 434.500 C 318.721 437.895,319.069 438.650,319.260 439.030 C 319.371 439.252,320.359 441.446,321.453 443.905 C 322.547 446.363,323.947 449.444,324.563 450.750 C 326.027 453.855,326.326 454.827,326.120 455.813 C 325.944 456.652,324.349 460.503,322.853 463.697 C 322.384 464.699,322.000 465.592,322.000 465.681 C 322.000 465.769,321.788 466.300,321.528 466.859 C 319.839 470.500,318.721 473.289,318.795 473.675 C 318.874 474.088,319.297 474.131,323.886 474.193 C 327.638 474.243,328.992 474.181,329.297 473.943 C 329.650 473.667,331.616 469.029,332.135 467.250 C 332.235 466.906,332.471 466.403,332.659 466.132 C 332.846 465.861,333.004 465.467,333.008 465.257 C 333.013 465.047,333.234 464.425,333.500 463.875 C 333.766 463.325,333.987 462.780,333.992 462.663 C 333.996 462.546,334.160 462.096,334.356 461.663 C 334.552 461.230,335.458 458.962,336.371 456.625 C 337.283 454.288,338.456 451.419,338.978 450.250 C 339.932 448.111,340.639 446.431,341.555 444.125 C 341.828 443.438,342.202 442.538,342.386 442.125 C 342.721 441.374,344.164 437.963,346.035 433.500 C 347.949 428.933,348.825 426.865,349.410 425.532 C 349.735 424.794,350.000 424.026,350.000 423.825 C 350.000 423.500,351.962 418.743,355.168 411.293 C 355.923 409.539,356.201 408.617,356.036 408.418 C 355.861 408.207,354.187 408.136,350.084 408.164 C 346.944 408.185,344.309 408.213,344.227 408.226 C 344.146 408.239,343.767 409.066,343.385 410.063 C 343.003 411.059,342.589 412.100,342.466 412.375 C 342.343 412.650,342.137 413.212,342.009 413.625 C 341.880 414.038,341.479 415.163,341.117 416.125 C 340.756 417.087,340.254 418.494,340.001 419.250 C 339.578 420.519,338.598 423.203,337.079 427.250 C 336.084 429.899,335.491 431.555,335.110 432.750 C 334.912 433.369,334.641 434.100,334.507 434.375 C 334.203 435.000,333.612 436.657,332.973 438.679 C 332.220 441.059,331.465 441.570,331.115 439.935 C 331.020 439.489,330.793 438.844,330.609 438.500 C 329.584 436.575,326.122 428.151,325.883 427.000 C 325.783 426.519,325.541 425.872,325.345 425.563 C 325.149 425.254,324.610 424.073,324.146 422.938 C 323.101 420.380,321.832 417.368,321.381 416.375 C 321.193 415.962,320.516 414.387,319.876 412.875 C 318.504 409.634,317.955 408.509,317.655 408.319 C 317.310 408.101,306.256 408.102,305.866 408.320 M759.198 408.282 C 758.953 408.434,758.946 408.634,759.166 409.176 C 759.323 409.561,759.862 410.887,760.364 412.125 C 761.571 415.099,764.158 420.978,766.305 425.625 C 767.258 427.688,768.261 429.881,768.534 430.500 C 768.808 431.119,769.238 432.075,769.490 432.625 C 769.743 433.175,770.230 434.244,770.574 435.000 C 770.918 435.756,771.482 436.994,771.826 437.750 C 772.171 438.506,773.374 441.206,774.501 443.750 C 775.628 446.294,776.772 448.825,777.044 449.375 C 777.315 449.925,778.024 451.460,778.618 452.786 L 779.698 455.196 778.705 457.536 C 778.159 458.822,777.496 460.353,777.231 460.938 C 776.967 461.522,776.514 462.534,776.226 463.188 C 775.938 463.841,775.548 464.712,775.360 465.125 C 775.172 465.538,774.499 467.113,773.863 468.625 C 773.228 470.137,772.481 471.856,772.204 472.444 C 771.372 474.206,771.495 474.250,777.253 474.250 C 781.595 474.250,782.258 474.197,782.713 473.813 C 783.241 473.368,784.226 470.987,784.912 468.500 C 785.379 466.807,790.688 453.400,792.025 450.538 C 792.561 449.390,793.000 448.363,793.000 448.256 C 793.000 448.148,793.290 447.400,793.645 446.593 C 794.446 444.770,794.556 444.510,795.384 442.500 C 796.420 439.987,798.008 436.207,798.378 435.375 C 798.562 434.962,799.011 433.894,799.377 433.000 C 799.743 432.106,800.198 431.038,800.388 430.625 C 800.579 430.212,801.119 428.919,801.589 427.750 C 802.059 426.581,803.025 424.275,803.736 422.625 C 804.447 420.975,805.409 418.725,805.875 417.625 C 806.340 416.525,807.225 414.444,807.841 413.000 C 809.058 410.147,809.472 408.542,809.057 408.285 C 808.640 408.027,797.502 408.148,797.237 408.413 C 797.106 408.544,796.087 411.177,794.973 414.263 C 792.577 420.904,792.330 421.575,791.022 425.000 C 789.063 430.129,786.000 438.807,786.000 439.227 C 786.000 439.462,785.843 439.869,785.652 440.130 C 785.155 440.810,784.760 440.393,783.816 438.198 C 783.385 437.196,782.449 435.025,781.736 433.375 C 781.023 431.725,780.052 429.419,779.580 428.250 C 779.107 427.081,778.333 425.305,777.860 424.303 C 777.387 423.301,777.000 422.414,777.000 422.333 C 777.000 422.189,775.319 418.151,774.624 416.625 C 774.436 416.212,773.930 415.031,773.500 414.000 C 771.762 409.835,771.025 408.252,770.816 408.230 C 769.476 408.093,759.432 408.138,759.198 408.282 M812.165 408.371 C 811.838 408.698,812.026 409.418,813.781 414.558 C 814.874 417.757,815.920 420.881,816.106 421.500 C 816.490 422.779,816.874 423.878,817.506 425.500 C 817.747 426.119,818.684 428.875,819.590 431.625 C 820.495 434.375,822.426 440.113,823.882 444.375 C 825.337 448.637,826.639 452.489,826.775 452.935 C 826.911 453.380,827.235 453.858,827.495 453.997 C 828.196 454.373,834.060 454.323,834.558 453.938 C 834.779 453.766,835.254 452.894,835.612 452.000 C 835.970 451.106,836.357 450.204,836.473 449.995 C 836.588 449.786,837.441 447.705,838.368 445.370 C 839.295 443.035,840.217 440.788,840.416 440.375 C 840.616 439.962,841.062 438.894,841.408 438.000 C 842.284 435.737,843.220 433.490,843.596 432.750 C 843.770 432.406,844.064 431.645,844.248 431.059 C 844.664 429.734,845.103 429.317,845.625 429.750 C 845.831 429.921,846.000 430.227,846.000 430.430 C 846.000 430.633,846.160 431.154,846.356 431.587 C 846.553 432.020,847.458 434.119,848.368 436.250 C 849.278 438.381,850.180 440.462,850.372 440.875 C 851.007 442.239,853.000 446.943,853.000 447.076 C 853.000 447.148,853.563 448.397,854.250 449.851 C 854.938 451.305,855.500 452.613,855.500 452.759 C 855.500 452.904,855.776 453.299,856.114 453.636 C 856.702 454.224,856.862 454.250,859.941 454.250 C 863.506 454.250,863.812 454.142,864.211 452.750 C 864.349 452.269,864.762 451.087,865.130 450.125 C 865.498 449.163,865.951 447.869,866.136 447.250 C 866.646 445.548,867.270 443.685,867.516 443.125 C 867.637 442.850,868.524 440.262,869.487 437.375 C 870.450 434.488,871.429 431.563,871.662 430.875 C 872.417 428.652,872.934 427.144,873.247 426.250 C 876.584 416.741,879.206 408.606,879.001 408.401 C 878.645 408.045,868.749 408.036,868.397 408.391 C 868.248 408.543,867.856 409.501,867.528 410.521 C 867.200 411.541,866.790 412.769,866.616 413.250 C 866.443 413.731,866.007 415.081,865.648 416.250 C 865.288 417.419,864.392 420.231,863.656 422.500 C 862.920 424.769,861.785 428.313,861.133 430.375 C 860.481 432.438,859.779 434.655,859.573 435.303 C 858.824 437.660,858.265 437.357,857.169 434.000 C 856.557 432.127,856.106 431.091,852.873 424.125 C 852.235 422.750,851.615 421.400,851.495 421.125 C 851.375 420.850,850.933 419.870,850.513 418.948 C 850.093 418.026,849.750 417.208,849.750 417.130 C 849.750 417.053,849.467 416.542,849.122 415.995 L 848.494 415.000 845.503 415.000 C 841.965 415.000,842.420 414.611,840.360 419.390 C 839.593 421.169,838.675 423.244,838.319 424.000 C 836.378 428.130,833.416 435.023,833.164 435.997 C 832.711 437.757,832.159 437.616,831.514 435.576 C 831.218 434.640,830.544 432.525,830.016 430.875 C 829.488 429.225,828.520 426.188,827.866 424.125 C 823.924 411.708,822.915 408.636,822.673 408.313 C 822.302 407.818,812.665 407.871,812.165 408.371 M280.848 417.546 C 283.971 418.759,286.309 420.964,287.872 424.169 C 289.023 426.530,289.351 428.554,289.181 432.250 C 288.980 436.606,287.881 439.341,285.271 441.987 C 282.855 444.436,280.087 445.589,276.625 445.589 C 273.047 445.589,270.468 444.474,268.037 441.874 C 265.305 438.954,264.170 435.805,264.164 431.125 C 264.159 427.708,264.513 426.180,265.959 423.375 C 267.746 419.906,271.235 417.375,274.750 416.996 C 276.966 416.757,279.379 416.974,280.848 417.546 M482.633 417.552 C 485.426 418.854,487.091 420.415,488.220 422.792 C 489.053 424.544,489.172 425.640,488.565 425.965 C 488.242 426.138,484.378 426.227,477.306 426.225 C 468.198 426.223,466.492 426.166,466.237 425.859 C 465.996 425.568,466.082 425.168,466.666 423.861 C 468.357 420.076,471.478 417.580,475.250 416.995 C 477.646 416.623,481.219 416.892,482.633 417.552 M965.377 417.733 C 968.131 419.008,970.328 421.412,971.072 423.966 C 971.517 425.495,971.440 425.898,970.669 426.091 C 970.370 426.165,965.443 426.227,959.721 426.228 C 951.699 426.229,949.218 426.157,948.883 425.912 C 948.476 425.614,948.474 425.518,948.852 424.406 C 949.853 421.457,952.322 418.855,955.247 417.667 C 956.865 417.009,958.787 416.767,961.446 416.885 C 963.359 416.970,964.051 417.119,965.377 417.733 M1050.892 417.562 C 1052.865 418.491,1054.072 419.356,1055.033 420.530 C 1056.561 422.394,1057.583 425.173,1056.999 425.876 C 1056.581 426.380,1035.296 426.396,1034.607 425.893 C 1034.181 425.581,1034.187 425.504,1034.734 424.233 C 1036.168 420.899,1038.284 418.791,1041.375 417.618 C 1044.093 416.585,1048.761 416.558,1050.892 417.562 M606.000 441.666 C 604.866 442.152,603.351 443.611,602.667 444.875 C 602.221 445.700,602.126 446.290,602.127 448.250 C 602.127 450.333,602.208 450.779,602.787 451.875 C 603.979 454.135,605.600 455.040,608.482 455.052 C 610.770 455.062,612.477 454.337,613.733 452.821 C 615.952 450.144,615.633 444.570,613.154 442.710 C 611.278 441.302,607.975 440.819,606.000 441.666 M1078.818 441.722 C 1076.579 442.611,1075.095 444.782,1074.837 447.544 C 1074.555 450.569,1075.756 453.103,1078.080 454.385 C 1079.111 454.955,1079.582 455.050,1081.356 455.050 C 1082.776 455.050,1083.674 454.923,1084.211 454.645 C 1085.599 453.928,1086.786 452.687,1087.428 451.282 C 1087.990 450.055,1088.044 449.671,1087.942 447.643 C 1087.852 445.832,1087.708 445.168,1087.227 444.349 C 1086.503 443.114,1085.459 442.199,1084.155 441.654 C 1082.911 441.134,1080.211 441.168,1078.818 441.722 "/></svg>